<svg width="235" height="63" viewBox="0 0 235 63" fill="none" xmlns="http://www.w3.org/2000/svg">
<path d="M204.123 35.4034H202.273V26.6982H204.387C205.551 26.6982 206.238 28.1695 206.238 30.9895C206.291 34.0547 205.498 35.4034 204.123 35.4034ZM212.424 21.1807V28.9664C211.842 24.7977 209.516 21.1807 204.916 21.1807H196.562V35.526H188.262V33.3804H194.395V28.4147H188.209V26.3916H195.611V21.1807H182.393V26.3916C181.706 22.8973 179.485 21.1807 175.784 21.1807H166.637V34.3C161.403 36.6908 158.072 35.9552 157.966 31.2347C157.966 26.3916 160.98 25.1655 165.738 26.8208L165.263 21.4873C159.447 20.1386 154.953 21.4873 152.309 26.8208C151.833 24.0008 150.459 21.3647 146.282 21.1807H137.029V35.4034H128.675V33.3804H134.809V28.4147H128.675V26.3916H136.077V21.3033L101.077 21.3646V32.093L96.5296 21.3646H89.9207V35.5874H81.2498V33.5643H87.3829V28.7212H81.2498V26.5756H88.546V21.4873H75.4868V34.4839C70.7284 36.7521 66.9216 36.3843 66.9216 31.1734C66.9216 26.7595 70.5169 25.4108 74.7995 27.1273L74.2179 21.6712C66.4458 19.7707 61.1057 23.2651 61 31.6025C61 38.5913 67.5032 42.8826 75.4868 40.1852V40.737H95.155V30.683L99.5433 40.737H106.364V26.3916H111.809V40.737H117.837V26.5143H122.807V40.6756H142.475V26.4529H144.325C145.383 26.4529 146.176 26.8208 146.176 28.1695C146.07 29.7634 144.907 30.1925 142.951 29.7634L145.594 40.6143H151.833L149.19 32.5834C150.459 32.2156 151.41 31.2347 151.833 29.886C151.833 40.8596 160.081 42.2083 166.531 39.94V40.4917H172.189V26.269H174.039C175.414 26.269 175.784 27.1886 175.784 27.9856C175.89 29.3343 174.515 30.0086 172.559 29.5795L175.361 40.4304H181.283L178.745 32.3995C180.595 31.8478 181.758 30.8056 182.34 28.9051V40.4304L205.868 40.3691C209.093 40.3691 211.525 37.6717 212.371 33.2578V40.3691H218.398V26.1464H224.32V40.3691H230.347V26.1464H235V21.0581L212.424 21.1807Z" fill="url(#paint0_linear_0_1)"/>
<path d="M15.9189 25.8747H20.7297L17.8649 31.5106L18.3514 32.4499C18.3514 32.4499 22.5676 31.2758 22.6757 34.446C22.7838 37.6749 17.7568 37.1465 16.1892 36.1485C15.3784 38.3794 15 40.0232 15 40.0232C15 40.0232 22.5135 43.3695 26.027 37.6749C22.7838 33.6241 24.0811 29.3971 24.0811 29.3971L23.1622 29.221L27 22H26.1892H15.8108L15.9189 25.8747Z" fill="url(#paint1_linear_0_1)"/>
<path d="M33.5 36.5155C31.0714 36.5155 29.0652 34.2733 29.0652 31.559C29.0652 28.8447 31.0714 26.6025 33.5 26.6025C35.9286 26.6025 37.9348 28.8447 37.9348 31.559C37.9348 34.2733 35.9286 36.5155 33.5 36.5155ZM33.5 22C28.8012 22 25 26.2484 25 31.5C25 36.7516 28.8012 41 33.5 41C38.1988 41 42 36.7516 42 31.5C42 26.3075 38.1988 22 33.5 22Z" fill="url(#paint2_linear_0_1)"/>
<path d="M47.6349 34.1705C47.4229 34.4133 46.946 34.1705 47.052 33.9277V29.0723C46.946 28.526 47.5289 28.4046 47.7408 28.6474L49.5954 30.7717C49.8073 31.1965 49.9133 31.6821 49.5954 31.9249L47.6349 34.1705ZM43.5019 48.9191C43.3959 49.2832 43.131 49.8295 42.7071 49.8295H40.0578C39.5809 49.8295 39.4749 49.2832 39.6869 49.0405L42.6541 45.6416C43.025 45.2168 43.4489 45.5202 43.4489 45.8844L43.5019 48.9191ZM31.8979 49.4653H22.6782C21.4065 49.5867 20.3468 49.2225 19.446 48.0087L12.7697 40.422C11.71 39.3902 11.2861 38.0549 11.3921 36.3555V25.9769C11.3921 24.5202 11.869 23.185 12.6638 22.2746L19.658 14.263C20.3468 13.474 21.2476 13.0491 22.5193 13.0491H31.9509C33.2225 12.9277 34.2823 13.2919 35.0771 14.3844L41.8593 22.1532C42.7601 23.0636 43.237 24.2775 43.237 25.6734V36.9624C43.343 38.4191 42.9191 39.5723 41.8593 40.3613L35.448 47.8266C34.4412 49.0405 33.2755 49.5867 31.8979 49.4653ZM29.8314 54.685L27.9769 56.8092C27.659 57.1734 27.1821 57.1734 26.9171 56.8092L24.9566 54.685C24.7447 54.3208 24.9566 53.896 25.1686 53.896H29.4075C29.9374 53.896 30.0433 54.4422 29.8314 54.685ZM14.9952 50.1329H12.3459C11.975 50.1329 11.657 49.8902 11.657 49.3439L11.5511 46.3092C11.5511 45.763 12.0279 45.6416 12.2399 45.9451L15.3661 49.3439C15.525 49.5867 15.3131 50.1329 14.9952 50.1329ZM11.2861 16.8728V13.9595C11.3921 13.4133 11.657 13.0491 12.0809 13.0491H14.7302C15.2071 13.0491 15.3131 13.5954 15.1012 13.8381L12.1339 17.237C11.71 17.4798 11.2861 17.237 11.2861 16.8728ZM25.3276 8.13295L27.1821 6.00867C27.553 5.7659 27.9769 5.58381 28.2418 6.00867L30.2023 8.13295C30.4143 8.49711 30.2023 8.92196 29.8844 8.92196H25.7514C25.1686 8.92196 25.0626 8.43642 25.3276 8.13295ZM40.0578 12.9884H42.7071C43.078 12.9884 43.5019 13.2312 43.396 13.7775V16.9335C43.396 17.2977 42.9191 17.4798 42.8131 17.1763L39.8459 13.7775C39.4749 13.5347 39.6869 12.9884 40.0578 12.9884ZM7.04721 34.2312L5.19268 32.1069C4.98073 31.8035 4.82177 31.3179 5.19268 30.9538L7.15318 28.7081C7.36512 28.4653 7.842 28.7081 7.73603 29.1329L7.842 33.8671C7.842 34.3526 7.36512 34.474 7.04721 34.2312ZM46.8401 22.3353V9.16474H35.448L27.5 0L19.552 9.10405H8.05395V22.2746L0 31.4393L8.15992 40.6647V53.8353H19.552L27.5 63L35.448 53.7746H46.946V40.7254L55 31.5607L46.8401 22.3353Z" fill="url(#paint3_linear_0_1)"/>
<path d="M64 47.9249V53.6474H66.0685C66.4398 53.6474 66.9172 53.5838 67.3415 53.2659C67.6597 53.0116 67.8719 52.6301 67.8719 51.9942C67.8719 51.3584 67.6067 51.104 67.5537 51.0405C67.3945 50.8497 67.1293 50.7225 66.8641 50.659V50.5954C67.1293 50.5318 67.2885 50.341 67.4476 50.1503C67.6067 49.9595 67.7128 49.6416 67.7128 49.3237C67.7128 48.9422 67.6067 48.4971 67.2354 48.2428C66.8641 47.9249 66.3337 47.9249 65.9625 47.9249C65.9625 47.9249 64 47.9249 64 47.9249ZM64.9017 48.815H65.8564C66.1746 48.815 66.3868 48.8786 66.5459 48.9422C66.8111 49.133 66.8111 49.3237 66.8111 49.5145C66.8111 49.6416 66.8111 49.9595 66.5459 50.0867C66.3337 50.2139 66.0685 50.2139 65.8034 50.2139H64.9017C64.9017 50.2139 64.9017 48.815 64.9017 48.815ZM64.9017 51.0405H65.8034C66.2277 51.0405 66.4929 51.104 66.652 51.2312C66.8641 51.3584 66.9702 51.6127 66.9702 51.9306C66.9702 52.185 66.8641 52.3757 66.7581 52.5029C66.5459 52.7572 66.1746 52.7572 66.0155 52.7572H64.9017V51.0405ZM74.4488 47.9249V52.7572H72.2212V47.9249H71.3195V53.6474H75.1914V55.237H76.04V52.7572H75.2975V47.9249H74.4488ZM80.9197 51.0405V50.7225C80.9197 50.0231 80.7605 49.1965 80.3893 48.6243C80.1241 48.2428 79.6467 47.7977 78.7981 47.7977C78.0555 47.7977 77.5782 48.1156 77.313 48.4335C76.9417 48.815 76.5704 49.5145 76.5704 50.7225C76.5704 51.8035 76.8886 52.5029 77.2069 52.8844C77.7373 53.5838 78.4798 53.711 79.0633 53.711C79.8589 53.711 80.1771 53.5202 80.4423 53.3931L80.5484 53.3295V52.2486C80.1771 52.5665 79.5937 52.8208 79.1163 52.8208C78.5859 52.8208 78.1616 52.5665 77.8964 52.2486C77.6842 51.9306 77.5251 51.4855 77.4721 50.9769L80.9197 51.0405ZM77.5251 50.2139C77.5782 49.896 77.6312 49.5145 77.8434 49.2601C78.0555 48.9422 78.3207 48.6879 78.7981 48.6879C79.2754 48.6879 79.5937 49.0058 79.7528 49.1965C79.9119 49.4509 80.018 49.8324 80.018 50.2139H77.5251V50.2139ZM82.9882 47.9249H82.0865V53.6474H82.9882V51.104H85.428V53.6474H86.3297V47.9249H85.428V50.2139H82.9882V47.9249ZM87.1253 47.9249V48.7514H88.7695V53.5838H89.6712V48.7514H91.3154V47.9249H87.1253ZM92.111 47.9249V56H93.0127V52.8844C93.1188 53.0751 93.2779 53.2659 93.5431 53.4566C93.8614 53.6474 94.2326 53.711 94.6039 53.711C95.3995 53.711 95.8238 53.2659 96.089 52.8844C96.4603 52.3121 96.6194 51.4855 96.6194 50.7225C96.6194 49.8324 96.4073 49.0694 96.036 48.5607C95.6647 48.052 95.1343 47.7977 94.5509 47.7977C94.1796 47.7977 93.437 47.8613 92.9597 48.6879V47.8613H92.111V47.9249ZM93.0127 50.7861C93.0127 50.2775 93.1188 49.7688 93.384 49.3237C93.5431 49.0058 93.8614 48.6243 94.4448 48.6243C94.8161 48.6243 95.1343 48.815 95.3465 49.1329C95.6647 49.578 95.7177 50.2139 95.7177 50.659C95.7177 51.422 95.5586 51.9942 95.2934 52.3757C95.0813 52.6301 94.8161 52.8844 94.3918 52.8844C93.9144 52.8844 93.5962 52.6301 93.384 52.2486C93.1188 51.8671 93.0127 51.2948 93.0127 50.7861ZM101.817 51.0405V50.7225C101.817 50.0231 101.658 49.1965 101.287 48.6243C101.022 48.2428 100.544 47.7977 99.6957 47.7977C98.9532 47.7977 98.4758 48.1156 98.2106 48.4335C97.8393 48.815 97.4681 49.5145 97.4681 50.7225C97.4681 51.8035 97.7863 52.5029 98.1045 52.8844C98.6349 53.5838 99.3775 53.711 99.9609 53.711C100.757 53.711 101.075 53.5202 101.34 53.3931L101.446 53.3295V52.2486C101.075 52.5665 100.491 52.8208 100.014 52.8208C99.4836 52.8208 99.0592 52.5665 98.7941 52.2486C98.5819 51.9306 98.4228 51.4855 98.3697 50.9769L101.817 51.0405ZM98.4228 50.2139C98.4758 49.896 98.5288 49.5145 98.741 49.2601C98.9532 48.9422 99.2184 48.6879 99.6957 48.6879C100.173 48.6879 100.491 49.0058 100.65 49.1965C100.81 49.4509 100.916 49.8324 100.916 50.2139H98.4228V50.2139ZM108.288 48.052C107.811 47.8613 107.386 47.7977 107.227 47.7977C106.644 47.7977 106.06 48.052 105.636 48.4335C105 49.0694 104.841 49.896 104.841 50.659C104.841 51.6763 105.212 52.3757 105.477 52.7572C105.848 53.2659 106.432 53.6474 107.28 53.6474C107.758 53.6474 108.076 53.5838 108.394 53.3931L108.341 52.4393C108.129 52.6301 107.811 52.7572 107.386 52.7572C106.856 52.7572 106.432 52.4393 106.167 52.1214C105.901 51.7399 105.795 51.1676 105.795 50.659C105.795 50.0231 106.007 49.3873 106.326 49.0058C106.591 48.7514 106.962 48.5607 107.28 48.5607C107.546 48.5607 107.917 48.6243 108.235 48.815L108.288 48.052ZM111.417 47.8613C110.516 47.8613 109.932 48.3064 109.614 48.7514C109.19 49.3237 108.978 50.0867 108.978 50.7861C108.978 51.4856 109.19 52.2486 109.614 52.8208C109.932 53.2659 110.516 53.711 111.417 53.711C112.319 53.711 112.903 53.2659 113.221 52.8208C113.645 52.2486 113.857 51.4856 113.857 50.7861C113.857 50.0867 113.645 49.3237 113.221 48.7514C112.903 48.3064 112.319 47.8613 111.417 47.8613ZM111.417 48.6879C111.842 48.6879 112.266 48.8786 112.531 49.3873C112.743 49.7052 112.903 50.2139 112.903 50.7861C112.903 51.3584 112.743 51.8671 112.531 52.185C112.16 52.8208 111.63 52.8844 111.417 52.8844C111.205 52.8844 110.675 52.8208 110.304 52.185C110.092 51.8671 109.932 51.3584 109.932 50.7861C109.932 50.2775 110.038 49.7688 110.304 49.3873C110.569 49.0058 110.94 48.6879 111.417 48.6879ZM119.161 45C118.843 45.1272 118.578 45.1272 118.313 45.1272C118.154 45.1272 117.941 45.1272 117.782 45.1908C117.676 45.1908 117.57 45.1908 117.411 45.1908C117.199 45.1908 116.881 45.2543 116.615 45.3179C116.297 45.3815 115.926 45.5723 115.555 45.9538C114.918 46.6532 114.706 47.9249 114.706 49.3873C114.706 51.3584 115.077 52.3121 115.395 52.8208C115.767 53.3295 116.456 53.711 117.199 53.711C118.101 53.711 118.684 53.2659 119.002 52.8208C119.373 52.3757 119.639 51.6763 119.639 50.7861C119.639 49.0694 118.684 47.8613 117.305 47.8613C116.934 47.8613 116.509 47.9884 116.244 48.1792C115.979 48.3699 115.714 48.7514 115.555 49.0694H115.502V48.815C115.502 48.1792 115.555 47.3526 115.979 46.8439C116.138 46.5896 116.456 46.3353 116.934 46.2717C117.04 46.2717 117.252 46.2081 117.676 46.2081C117.941 46.2081 117.782 46.2081 118.366 46.1445C118.578 46.1445 118.79 46.0809 119.108 46.0173L119.161 45ZM117.252 48.6879C117.676 48.6879 118.047 48.8786 118.366 49.3873C118.631 49.8324 118.737 50.341 118.737 50.7861C118.737 51.2948 118.631 51.8035 118.366 52.185C118.1 52.6301 117.676 52.8844 117.252 52.8844C116.828 52.8844 116.403 52.6936 116.138 52.185C115.873 51.8035 115.767 51.2312 115.767 50.7861C115.767 50.341 115.873 49.7688 116.138 49.3873C116.297 49.0694 116.668 48.6879 117.252 48.6879ZM120.806 47.9249V53.6474H122.821C123.192 53.6474 123.723 53.5838 124.147 53.2023C124.412 52.948 124.571 52.5029 124.571 51.9306C124.571 51.2312 124.306 50.7861 124.041 50.5954C123.617 50.2139 122.98 50.1503 122.609 50.1503H121.654V47.9884H120.806V47.9249V47.9249ZM121.707 50.9769H122.715C122.927 50.9769 123.298 50.9769 123.564 51.2312C123.776 51.422 123.776 51.6763 123.776 51.8671C123.776 52.0578 123.723 52.3121 123.617 52.5029C123.404 52.7572 123.086 52.8208 122.874 52.8208H121.76L121.707 50.9769ZM125.367 53.6474H126.269V47.9249H125.367V53.6474ZM127.064 47.9249V48.7514H128.708V53.5838H129.61V48.7514H131.254V47.9249H127.064ZM133.005 47.9249H132.103V53.6474H133.005L135.551 49.3237V53.6474H136.452V47.9249H135.551L133.005 52.2486V47.9249V47.9249ZM138.786 47.9249H137.884V53.6474H138.786L141.332 49.3237V53.6474H142.234V47.9249H141.332L138.786 52.2486V47.9249ZM140.961 45.3179C140.908 45.6358 140.802 45.763 140.748 45.8266C140.536 46.0173 140.324 46.0809 140.112 46.0809C139.9 46.0809 139.688 46.0809 139.475 45.8266C139.422 45.763 139.263 45.5723 139.263 45.3179L138.68 45.3815C138.68 45.8902 138.892 46.3353 139.157 46.526C139.422 46.7803 139.794 46.8439 140.112 46.8439C140.483 46.8439 140.855 46.7168 141.067 46.526C141.279 46.3353 141.491 45.8902 141.544 45.3815L140.961 45.3179ZM151.091 47.9249H150.19V53.6474H151.091V51.104H153.531V53.6474H154.433V47.9249H153.531V50.2139H151.091V47.9249ZM156.183 49.2601C156.766 48.7514 157.244 48.6879 157.615 48.6879C157.827 48.6879 158.199 48.6879 158.464 49.0058C158.729 49.2601 158.729 49.6416 158.729 49.8324V50.1503C158.57 50.1503 158.305 50.1503 158.145 50.1503C157.085 50.1503 156.554 50.4046 156.342 50.5318C155.706 50.9769 155.6 51.6763 155.6 52.0578C155.6 52.6936 155.865 53.1387 156.13 53.3295C156.395 53.5838 156.819 53.711 157.244 53.711C157.774 53.711 158.411 53.4566 158.782 52.8208V53.5838H159.578C159.525 53.3295 159.525 52.6936 159.525 52.4393V50.1503C159.525 49.5145 159.471 48.8786 159.1 48.3699C158.782 47.9884 158.305 47.7977 157.721 47.7977C157.403 47.7977 156.66 47.8613 156.077 48.3064L156.183 49.2601ZM158.729 51.422C158.729 51.9306 158.57 52.2486 158.411 52.4393C158.199 52.7572 157.827 52.8844 157.456 52.8844C157.191 52.8844 156.979 52.8208 156.766 52.6301C156.66 52.5029 156.501 52.3121 156.501 51.9942C156.501 51.7399 156.554 51.4855 156.873 51.2312C157.138 51.0405 157.562 50.9133 158.252 50.9133C158.411 50.9133 158.57 50.9133 158.729 50.9133V51.422ZM163.237 47.9249V53.6474H164.139V48.815H166.473V53.6474H167.374V47.9249H163.237ZM170.928 47.8613C170.026 47.8613 169.443 48.3064 169.125 48.7514C168.7 49.3237 168.488 50.0867 168.488 50.7861C168.488 51.4856 168.7 52.2486 169.125 52.8208C169.443 53.2659 170.026 53.711 170.928 53.711C171.83 53.711 172.413 53.2659 172.731 52.8208C173.156 52.2486 173.368 51.4856 173.368 50.7861C173.368 50.0867 173.156 49.3237 172.731 48.7514C172.413 48.3064 171.883 47.8613 170.928 47.8613ZM170.928 48.6879C171.352 48.6879 171.777 48.8786 172.042 49.3873C172.254 49.7052 172.413 50.2139 172.413 50.7861C172.413 51.3584 172.254 51.8671 172.042 52.185C171.671 52.8208 171.14 52.8844 170.928 52.8844C170.716 52.8844 170.185 52.8208 169.814 52.185C169.602 51.8671 169.443 51.3584 169.443 50.7861C169.443 50.2775 169.549 49.7688 169.814 49.3873C170.079 49.0058 170.504 48.6879 170.928 48.6879ZM174.535 47.9249V56H175.436V52.8844C175.543 53.0751 175.702 53.2659 175.967 53.4566C176.285 53.6474 176.656 53.711 177.028 53.711C177.823 53.711 178.248 53.2659 178.513 52.8844C178.884 52.3121 179.043 51.4855 179.043 50.7225C179.043 49.8324 178.831 49.0694 178.46 48.5607C178.088 48.052 177.558 47.7977 176.975 47.7977C176.603 47.7977 175.861 47.8613 175.383 48.6879V47.8613H174.535V47.9249V47.9249ZM175.436 50.7861C175.436 50.2775 175.542 49.7688 175.808 49.3237C175.967 49.0058 176.285 48.6243 176.868 48.6243C177.24 48.6243 177.558 48.815 177.77 49.1329C178.088 49.578 178.141 50.2139 178.141 50.659C178.141 51.422 177.982 51.9942 177.717 52.3757C177.505 52.6301 177.24 52.8844 176.815 52.8844C176.338 52.8844 176.02 52.6301 175.808 52.2486C175.542 51.8671 175.436 51.2948 175.436 50.7861ZM182.332 47.8613C181.43 47.8613 180.846 48.3064 180.528 48.7514C180.104 49.3237 179.892 50.0867 179.892 50.7861C179.892 51.4856 180.104 52.2486 180.528 52.8208C180.846 53.2659 181.43 53.711 182.332 53.711C183.233 53.711 183.817 53.2659 184.135 52.8208C184.559 52.2486 184.771 51.4856 184.771 50.7861C184.771 50.0867 184.559 49.3237 184.135 48.7514C183.817 48.3064 183.233 47.8613 182.332 47.8613ZM182.332 48.6879C182.756 48.6879 183.18 48.8786 183.445 49.3873C183.658 49.7052 183.817 50.2139 183.817 50.7861C183.817 51.3584 183.658 51.8671 183.445 52.185C183.074 52.8208 182.544 52.8844 182.332 52.8844C182.119 52.8844 181.589 52.8208 181.218 52.185C181.006 51.8671 180.846 51.3584 180.846 50.7861C180.846 50.2775 180.953 49.7688 181.218 49.3873C181.483 49.0058 181.854 48.6879 182.332 48.6879ZM185.938 47.9249V53.6474H186.84V48.815H189.068V47.9249H185.938ZM193.682 51.0405V50.7225C193.682 50.0231 193.523 49.1965 193.152 48.6243C192.886 48.2428 192.409 47.7977 191.56 47.7977C190.818 47.7977 190.341 48.1156 190.075 48.4335C189.704 48.815 189.333 49.5145 189.333 50.7225C189.333 51.8035 189.651 52.5029 189.969 52.8844C190.5 53.5838 191.242 53.711 191.826 53.711C192.621 53.711 192.94 53.5202 193.205 53.3931L193.311 53.3295V52.2486C192.94 52.5665 192.356 52.8208 191.879 52.8208C191.348 52.8208 190.924 52.5665 190.659 52.2486C190.447 51.9306 190.288 51.4855 190.234 50.9769L193.682 51.0405ZM190.288 50.2139C190.341 49.896 190.394 49.5145 190.606 49.2601C190.818 48.9422 191.083 48.6879 191.56 48.6879C192.038 48.6879 192.356 49.0058 192.515 49.1965C192.674 49.4509 192.78 49.8324 192.78 50.2139H190.288V50.2139ZM197.024 47.9249V53.6474H197.925V48.815H200.259V53.6474H201.161V47.9249H197.024ZM206.624 51.0405V50.7225C206.624 50.0231 206.465 49.1965 206.093 48.6243C205.828 48.2428 205.351 47.7977 204.502 47.7977C203.76 47.7977 203.282 48.1156 203.017 48.4335C202.646 48.815 202.275 49.5145 202.275 50.7225C202.275 51.8035 202.593 52.5029 202.911 52.8844C203.441 53.5838 204.184 53.711 204.767 53.711C205.563 53.711 205.881 53.5202 206.146 53.3931L206.252 53.3295V52.2486C205.881 52.5665 205.298 52.8208 204.82 52.8208C204.29 52.8208 203.866 52.5665 203.601 52.2486C203.388 51.9306 203.229 51.4855 203.176 50.9769L206.624 51.0405ZM203.229 50.2139C203.282 49.896 203.335 49.5145 203.547 49.2601C203.76 48.9422 204.025 48.6879 204.502 48.6879C204.98 48.6879 205.298 49.0058 205.457 49.1965C205.616 49.4509 205.722 49.8324 205.722 50.2139H203.229V50.2139ZM207.791 47.9249V56H208.692V52.8844C208.798 53.0751 208.958 53.2659 209.223 53.4566C209.541 53.6474 209.912 53.711 210.284 53.711C211.079 53.711 211.503 53.2659 211.769 52.8844C212.14 52.3121 212.299 51.4855 212.299 50.7225C212.299 49.8324 212.087 49.0694 211.716 48.5607C211.344 48.052 210.814 47.7977 210.23 47.7977C209.859 47.7977 209.117 47.8613 208.639 48.6879V47.8613H207.791V47.9249V47.9249ZM208.692 50.7861C208.692 50.2775 208.798 49.7688 209.064 49.3237C209.223 49.0058 209.541 48.6243 210.124 48.6243C210.496 48.6243 210.814 48.815 211.026 49.1329C211.344 49.578 211.397 50.2139 211.397 50.659C211.397 51.422 211.238 51.9942 210.973 52.3757C210.761 52.6301 210.496 52.8844 210.071 52.8844C209.594 52.8844 209.276 52.6301 209.064 52.2486C208.798 51.8671 208.692 51.2948 208.692 50.7861ZM217.497 51.0405V50.7225C217.497 50.0231 217.338 49.1965 216.967 48.6243C216.701 48.2428 216.224 47.7977 215.375 47.7977C214.633 47.7977 214.155 48.1156 213.89 48.4335C213.519 48.815 213.148 49.5145 213.148 50.7225C213.148 51.8035 213.466 52.5029 213.784 52.8844C214.315 53.5838 215.057 53.711 215.641 53.711C216.436 53.711 216.754 53.5202 217.02 53.3931L217.126 53.3295V52.2486C216.754 52.5665 216.171 52.8208 215.694 52.8208C215.163 52.8208 214.739 52.5665 214.474 52.2486C214.261 51.9306 214.102 51.4855 214.049 50.9769L217.497 51.0405ZM214.102 50.2139C214.155 49.896 214.208 49.5145 214.421 49.2601C214.633 48.9422 214.898 48.6879 215.375 48.6879C215.853 48.6879 216.171 49.0058 216.33 49.1965C216.489 49.4509 216.595 49.8324 216.595 50.2139H214.102V50.2139ZM221.793 53.6474L223.225 49.0058V53.6474H224.127V47.9249H222.801L221.475 51.9942H221.422L220.043 47.9249H218.717V53.6474H219.618V49.0058L221.051 53.6474H221.793ZM229.643 51.0405V50.7225C229.643 50.0231 229.484 49.1965 229.113 48.6243C228.847 48.2428 228.37 47.7977 227.521 47.7977C226.779 47.7977 226.301 48.1156 226.036 48.4335C225.665 48.815 225.294 49.5145 225.294 50.7225C225.294 51.8035 225.612 52.5029 225.93 52.8844C226.461 53.5838 227.203 53.711 227.787 53.711C228.582 53.711 228.9 53.5202 229.166 53.3931L229.272 53.3295V52.2486C228.9 52.5665 228.317 52.8208 227.84 52.8208C227.309 52.8208 226.885 52.5665 226.62 52.2486C226.408 51.9306 226.248 51.4855 226.195 50.9769L229.643 51.0405ZM226.248 50.2139C226.301 49.896 226.355 49.5145 226.567 49.2601C226.779 48.9422 227.044 48.6879 227.521 48.6879C227.999 48.6879 228.317 49.0058 228.476 49.1965C228.635 49.4509 228.741 49.8324 228.741 50.2139H226.248V50.2139ZM231.659 47.9249H230.757V53.6474H231.659V51.104H234.098V53.6474H235V47.9249H234.098V50.2139H231.659V47.9249Z" fill="url(#paint4_linear_0_1)"/>
<defs>
<linearGradient id="paint0_linear_0_1" x1="148" y1="21.0272" x2="148" y2="40.9" gradientUnits="userSpaceOnUse">
<stop stop-color="#008456"/>
<stop offset="0.2627" stop-color="#00784F"/>
<stop offset="0.4196" stop-color="#008456"/>
<stop offset="0.8392" stop-color="#006B47"/>
<stop offset="1" stop-color="#006B47"/>
</linearGradient>
<linearGradient id="paint1_linear_0_1" x1="14.9869" y1="31.5" x2="26.9701" y2="31.5" gradientUnits="userSpaceOnUse">
<stop stop-color="#CF9F69"/>
<stop offset="0.5137" stop-color="#B98853"/>
<stop offset="0.7608" stop-color="#A3713D"/>
<stop offset="1" stop-color="#A3713D"/>
</linearGradient>
<linearGradient id="paint2_linear_0_1" x1="24.9682" y1="31.5" x2="42.0099" y2="31.5" gradientUnits="userSpaceOnUse">
<stop stop-color="#CF9F69"/>
<stop offset="0.5137" stop-color="#B98853"/>
<stop offset="0.7608" stop-color="#A3713D"/>
<stop offset="1" stop-color="#A3713D"/>
</linearGradient>
<linearGradient id="paint3_linear_0_1" x1="27.5" y1="-1.81423e-05" x2="27.5" y2="63" gradientUnits="userSpaceOnUse">
<stop stop-color="#CF9F69"/>
<stop offset="0.3569" stop-color="#B98853"/>
<stop offset="0.651" stop-color="#A3713D"/>
<stop offset="1" stop-color="#A3713D"/>
</linearGradient>
<linearGradient id="paint4_linear_0_1" x1="149.5" y1="44.9751" x2="149.5" y2="55.9751" gradientUnits="userSpaceOnUse">
<stop stop-color="#CF9F69"/>
<stop offset="0.5137" stop-color="#B98853"/>
<stop offset="0.7608" stop-color="#A3713D"/>
<stop offset="1" stop-color="#A3713D"/>
</linearGradient>
</defs>
</svg>
