<svg width="376" height="385" viewBox="0 0 376 385" fill="none" xmlns="http://www.w3.org/2000/svg">
<g opacity="0.5">
<ellipse cx="81.9876" cy="126.678" rx="2.51487" ry="2.28511" transform="rotate(180 81.9876 126.678)" fill="#1A3555"/>
<path d="M81.9876 127.135L46.7795 127.135" stroke="#004C92"/>
</g>
<g opacity="0.5">
<ellipse cx="85.0055" cy="204.373" rx="2.51487" ry="2.28511" transform="rotate(180 85.0055 204.373)" fill="#1A3555"/>
<path d="M85.0055 203.915L58.8509 203.915" stroke="#004C92"/>
</g>
<g opacity="0.5">
<ellipse cx="322.912" cy="311.01" rx="2.47475" ry="2.51487" transform="rotate(90 322.912 311.01)" fill="#1A3555"/>
<path d="M322.409 311.01L322.409 336.748" stroke="#004C92"/>
</g>
<g opacity="0.5">
<ellipse cx="221.311" cy="49.4419" rx="2.28511" ry="2.51487" transform="rotate(-90 221.311 49.4419)" fill="#1A3555"/>
<path d="M221.814 49.442L221.814 25.6768" stroke="#004C92"/>
</g>
<path opacity="0.5" d="M8.936 118.6C9.728 118.6 10.388 118.864 10.916 119.392C11.452 119.92 11.72 120.576 11.72 121.36C11.72 122.136 11.452 122.792 10.916 123.328C10.388 123.856 9.728 124.12 8.936 124.12H7.22V127H5.84V118.6H8.936ZM8.936 122.824C9.344 122.824 9.68 122.688 9.944 122.416C10.208 122.136 10.34 121.784 10.34 121.36C10.34 120.936 10.208 120.588 9.944 120.316C9.68 120.036 9.344 119.896 8.936 119.896H7.22V122.824H8.936ZM19.8678 125.896C19.0278 126.736 17.9998 127.156 16.7838 127.156C15.5678 127.156 14.5358 126.736 13.6878 125.896C12.8478 125.048 12.4278 124.016 12.4278 122.8C12.4278 121.584 12.8478 120.556 13.6878 119.716C14.5358 118.868 15.5678 118.444 16.7838 118.444C17.9998 118.444 19.0278 118.868 19.8678 119.716C20.7158 120.556 21.1398 121.584 21.1398 122.8C21.1398 124.016 20.7158 125.048 19.8678 125.896ZM14.6598 124.96C15.2358 125.528 15.9438 125.812 16.7838 125.812C17.6238 125.812 18.3278 125.528 18.8958 124.96C19.4718 124.384 19.7598 123.664 19.7598 122.8C19.7598 121.936 19.4718 121.22 18.8958 120.652C18.3278 120.076 17.6238 119.788 16.7838 119.788C15.9438 119.788 15.2358 120.076 14.6598 120.652C14.0918 121.22 13.8078 121.936 13.8078 122.8C13.8078 123.664 14.0918 124.384 14.6598 124.96ZM24.8782 127.156C24.0702 127.156 23.3822 126.972 22.8142 126.604C22.2542 126.236 21.8622 125.732 21.6382 125.092L22.8262 124.396C23.1622 125.34 23.8582 125.812 24.9142 125.812C25.4342 125.812 25.8222 125.712 26.0782 125.512C26.3422 125.304 26.4742 125.036 26.4742 124.708C26.4742 124.364 26.3342 124.104 26.0542 123.928C25.7742 123.744 25.2782 123.544 24.5662 123.328C24.1662 123.208 23.8422 123.096 23.5942 122.992C23.3462 122.888 23.0822 122.744 22.8022 122.56C22.5302 122.368 22.3262 122.132 22.1902 121.852C22.0542 121.572 21.9862 121.244 21.9862 120.868C21.9862 120.124 22.2502 119.536 22.7782 119.104C23.3062 118.664 23.9422 118.444 24.6862 118.444C25.3582 118.444 25.9462 118.608 26.4502 118.936C26.9542 119.264 27.3422 119.716 27.6142 120.292L26.4502 120.964C26.0982 120.18 25.5102 119.788 24.6862 119.788C24.2862 119.788 23.9662 119.884 23.7262 120.076C23.4862 120.26 23.3662 120.512 23.3662 120.832C23.3662 121.144 23.4862 121.392 23.7262 121.576C23.9742 121.752 24.4182 121.94 25.0582 122.14C25.3782 122.244 25.6102 122.324 25.7542 122.38C25.9062 122.428 26.1142 122.508 26.3782 122.62C26.6502 122.732 26.8542 122.844 26.9902 122.956C27.1262 123.068 27.2702 123.208 27.4222 123.376C27.5822 123.544 27.6942 123.736 27.7582 123.952C27.8222 124.168 27.8542 124.412 27.8542 124.684C27.8542 125.444 27.5782 126.048 27.0262 126.496C26.4822 126.936 25.7662 127.156 24.8782 127.156Z" fill="#1A3555"/>
<path opacity="0.5" d="M6.06 204H4.512L2.052 201.228V204H0.756V198H2.052V200.652L4.38 198H5.964L3.324 200.94L6.06 204ZM11.2033 198H12.4993V204H11.2033V203.136C10.7153 203.816 10.0153 204.156 9.10331 204.156C8.27931 204.156 7.57531 203.852 6.99131 203.244C6.40731 202.628 6.11531 201.88 6.11531 201C6.11531 200.112 6.40731 199.364 6.99131 198.756C7.57531 198.148 8.27931 197.844 9.10331 197.844C10.0153 197.844 10.7153 198.18 11.2033 198.852V198ZM7.95131 202.38C8.31131 202.74 8.76331 202.92 9.30731 202.92C9.85131 202.92 10.3033 202.74 10.6633 202.38C11.0233 202.012 11.2033 201.552 11.2033 201C11.2033 200.448 11.0233 199.992 10.6633 199.632C10.3033 199.264 9.85131 199.08 9.30731 199.08C8.76331 199.08 8.31131 199.264 7.95131 199.632C7.59131 199.992 7.41131 200.448 7.41131 201C7.41131 201.552 7.59131 202.012 7.95131 202.38ZM16.8419 204.156C15.9379 204.156 15.1819 203.852 14.5739 203.244C13.9739 202.636 13.6739 201.888 13.6739 201C13.6739 200.104 13.9739 199.356 14.5739 198.756C15.1819 198.148 15.9379 197.844 16.8419 197.844C17.4259 197.844 17.9579 197.984 18.4379 198.264C18.9179 198.544 19.2779 198.92 19.5179 199.392L18.4019 200.04C18.2659 199.752 18.0579 199.528 17.7779 199.368C17.5059 199.2 17.1899 199.116 16.8299 199.116C16.3019 199.116 15.8579 199.296 15.4979 199.656C15.1459 200.016 14.9699 200.464 14.9699 201C14.9699 201.536 15.1459 201.984 15.4979 202.344C15.8579 202.704 16.3019 202.884 16.8299 202.884C17.1819 202.884 17.4979 202.8 17.7779 202.632C18.0659 202.464 18.2819 202.24 18.4259 201.96L19.5419 202.596C19.2859 203.076 18.9179 203.456 18.4379 203.736C17.9579 204.016 17.4259 204.156 16.8419 204.156ZM23.2169 204.156C22.3129 204.156 21.5569 203.852 20.9489 203.244C20.3489 202.636 20.0489 201.888 20.0489 201C20.0489 200.104 20.3489 199.356 20.9489 198.756C21.5569 198.148 22.3129 197.844 23.2169 197.844C23.8009 197.844 24.3329 197.984 24.8129 198.264C25.2929 198.544 25.6529 198.92 25.8929 199.392L24.7769 200.04C24.6409 199.752 24.4329 199.528 24.1529 199.368C23.8809 199.2 23.5649 199.116 23.2049 199.116C22.6769 199.116 22.2329 199.296 21.8729 199.656C21.5209 200.016 21.3449 200.464 21.3449 201C21.3449 201.536 21.5209 201.984 21.8729 202.344C22.2329 202.704 22.6769 202.884 23.2049 202.884C23.5569 202.884 23.8729 202.8 24.1529 202.632C24.4409 202.464 24.6569 202.24 24.8009 201.96L25.9169 202.596C25.6609 203.076 25.2929 203.456 24.8129 203.736C24.3329 204.016 23.8009 204.156 23.2169 204.156ZM31.2328 198H32.2288V204H30.9568V200.184L27.8848 204H26.8888V198H28.1608V201.804L31.2328 198ZM37.1286 197.844C37.9526 197.844 38.6566 198.152 39.2406 198.768C39.8246 199.376 40.1166 200.12 40.1166 201C40.1166 201.888 39.8246 202.636 39.2406 203.244C38.6566 203.852 37.9526 204.156 37.1286 204.156C36.2166 204.156 35.5166 203.82 35.0286 203.148V206.4H33.7326V198H35.0286V198.864C35.5166 198.184 36.2166 197.844 37.1286 197.844ZM35.5686 202.38C35.9286 202.74 36.3806 202.92 36.9246 202.92C37.4686 202.92 37.9206 202.74 38.2806 202.38C38.6406 202.012 38.8206 201.552 38.8206 201C38.8206 200.448 38.6406 199.992 38.2806 199.632C37.9206 199.264 37.4686 199.08 36.9246 199.08C36.3806 199.08 35.9286 199.264 35.5686 199.632C35.2086 199.992 35.0286 200.448 35.0286 201C35.0286 201.552 35.2086 202.012 35.5686 202.38ZM43.9072 200.04C44.5472 200.04 45.0712 200.224 45.4792 200.592C45.8872 200.952 46.0912 201.428 46.0912 202.02C46.0912 202.604 45.8872 203.08 45.4792 203.448C45.0712 203.816 44.5472 204 43.9072 204H41.2912V198H42.5872V200.04H43.9072ZM46.8112 198H48.1072V204H46.8112V198ZM43.9192 202.836C44.1752 202.836 44.3872 202.76 44.5552 202.608C44.7312 202.456 44.8192 202.26 44.8192 202.02C44.8192 201.772 44.7312 201.576 44.5552 201.432C44.3872 201.28 44.1752 201.204 43.9192 201.204H42.5872V202.836H43.9192Z" fill="#1A3555"/>
<path opacity="0.5" d="M203.588 7.156C202.684 7.156 201.928 6.852 201.32 6.244C200.72 5.636 200.42 4.888 200.42 4C200.42 3.104 200.72 2.356 201.32 1.756C201.928 1.148 202.684 0.844 203.588 0.844C204.172 0.844 204.704 0.984 205.184 1.264C205.664 1.544 206.024 1.92 206.264 2.392L205.148 3.04C205.012 2.752 204.804 2.528 204.524 2.368C204.252 2.2 203.936 2.116 203.576 2.116C203.048 2.116 202.604 2.296 202.244 2.656C201.892 3.016 201.716 3.464 201.716 4C201.716 4.536 201.892 4.984 202.244 5.344C202.604 5.704 203.048 5.884 203.576 5.884C203.928 5.884 204.244 5.8 204.524 5.632C204.812 5.464 205.028 5.24 205.172 4.96L206.288 5.596C206.032 6.076 205.664 6.456 205.184 6.736C204.704 7.016 204.172 7.156 203.588 7.156ZM211.75 1V2.248H209.794V7H208.498V2.248H206.53V1H211.75ZM217.145 1H218.441V7H217.145V6.136C216.657 6.816 215.957 7.156 215.045 7.156C214.221 7.156 213.517 6.852 212.933 6.244C212.349 5.628 212.057 4.88 212.057 4C212.057 3.112 212.349 2.364 212.933 1.756C213.517 1.148 214.221 0.844 215.045 0.844C215.957 0.844 216.657 1.18 217.145 1.852V1ZM213.893 5.38C214.253 5.74 214.705 5.92 215.249 5.92C215.793 5.92 216.245 5.74 216.605 5.38C216.965 5.012 217.145 4.552 217.145 4C217.145 3.448 216.965 2.992 216.605 2.632C216.245 2.264 215.793 2.08 215.249 2.08C214.705 2.08 214.253 2.264 213.893 2.632C213.533 2.992 213.353 3.448 213.353 4C213.353 4.552 213.533 5.012 213.893 5.38ZM224.535 1V2.248H222.579V7H221.283V2.248H219.315V1H224.535ZM229.756 1H230.752V7H229.48V3.184L226.408 7H225.412V1H226.684V4.804L229.756 1ZM235.088 7.156C234.184 7.156 233.428 6.852 232.82 6.244C232.22 5.636 231.92 4.888 231.92 4C231.92 3.104 232.22 2.356 232.82 1.756C233.428 1.148 234.184 0.844 235.088 0.844C235.672 0.844 236.204 0.984 236.684 1.264C237.164 1.544 237.524 1.92 237.764 2.392L236.648 3.04C236.512 2.752 236.304 2.528 236.024 2.368C235.752 2.2 235.436 2.116 235.076 2.116C234.548 2.116 234.104 2.296 233.744 2.656C233.392 3.016 233.216 3.464 233.216 4C233.216 4.536 233.392 4.984 233.744 5.344C234.104 5.704 234.548 5.884 235.076 5.884C235.428 5.884 235.744 5.8 236.024 5.632C236.312 5.464 236.528 5.24 236.672 4.96L237.788 5.596C237.532 6.076 237.164 6.456 236.684 6.736C236.204 7.016 235.672 7.156 235.088 7.156ZM243.25 1V2.248H241.294V7H239.998V2.248H238.03V1H243.25ZM248.471 1H249.467V7H248.195V3.184L245.123 7H244.127V1H245.399V4.804L248.471 1ZM256.275 7H254.727L252.267 4.228V7H250.971V1H252.267V3.652L254.595 1H256.179L253.539 3.94L256.275 7ZM261.418 1H262.714V7H261.418V6.136C260.93 6.816 260.23 7.156 259.318 7.156C258.494 7.156 257.79 6.852 257.206 6.244C256.622 5.628 256.33 4.88 256.33 4C256.33 3.112 256.622 2.364 257.206 1.756C257.79 1.148 258.494 0.844 259.318 0.844C260.23 0.844 260.93 1.18 261.418 1.852V1ZM258.166 5.38C258.526 5.74 258.978 5.92 259.522 5.92C260.066 5.92 260.518 5.74 260.878 5.38C261.238 5.012 261.418 4.552 261.418 4C261.418 3.448 261.238 2.992 260.878 2.632C260.518 2.264 260.066 2.08 259.522 2.08C258.978 2.08 258.526 2.264 258.166 2.632C257.806 2.992 257.626 3.448 257.626 4C257.626 4.552 257.806 5.012 258.166 5.38ZM272.565 1V7H271.269V2.224H268.521V7H267.225V1H272.565ZM277.465 0.844C278.289 0.844 278.993 1.152 279.577 1.768C280.161 2.376 280.453 3.12 280.453 4C280.453 4.888 280.161 5.636 279.577 6.244C278.993 6.852 278.289 7.156 277.465 7.156C276.553 7.156 275.853 6.82 275.365 6.148V9.4H274.069V1H275.365V1.864C275.853 1.184 276.553 0.844 277.465 0.844ZM275.905 5.38C276.265 5.74 276.717 5.92 277.261 5.92C277.805 5.92 278.257 5.74 278.617 5.38C278.977 5.012 279.157 4.552 279.157 4C279.157 3.448 278.977 2.992 278.617 2.632C278.257 2.264 277.805 2.08 277.261 2.08C276.717 2.08 276.265 2.264 275.905 2.632C275.545 2.992 275.365 3.448 275.365 4C275.365 4.552 275.545 5.012 275.905 5.38ZM284.459 7.156C283.579 7.156 282.831 6.852 282.215 6.244C281.599 5.636 281.291 4.888 281.291 4C281.291 3.112 281.599 2.364 282.215 1.756C282.831 1.148 283.579 0.844 284.459 0.844C285.347 0.844 286.095 1.148 286.703 1.756C287.319 2.364 287.627 3.112 287.627 4C287.627 4.888 287.319 5.636 286.703 6.244C286.095 6.852 285.347 7.156 284.459 7.156ZM283.127 5.356C283.487 5.716 283.931 5.896 284.459 5.896C284.987 5.896 285.431 5.716 285.791 5.356C286.151 4.996 286.331 4.544 286.331 4C286.331 3.456 286.151 3.004 285.791 2.644C285.431 2.284 284.987 2.104 284.459 2.104C283.931 2.104 283.487 2.284 283.127 2.644C282.767 3.004 282.587 3.456 282.587 4C282.587 4.544 282.767 4.996 283.127 5.356ZM293.845 5.776H294.649V8.608H293.377V7H289.261V8.608H287.989V5.776H288.721C289.089 5.256 289.273 4.532 289.273 3.604V1H293.845V5.776ZM290.149 5.776H292.573V2.188H290.545V3.604C290.545 4.46 290.413 5.184 290.149 5.776ZM300.219 1H301.515V7H300.219V6.136C299.731 6.816 299.031 7.156 298.119 7.156C297.295 7.156 296.591 6.852 296.007 6.244C295.423 5.628 295.131 4.88 295.131 4C295.131 3.112 295.423 2.364 296.007 1.756C296.591 1.148 297.295 0.844 298.119 0.844C299.031 0.844 299.731 1.18 300.219 1.852V1ZM296.967 5.38C297.327 5.74 297.779 5.92 298.323 5.92C298.867 5.92 299.319 5.74 299.679 5.38C300.039 5.012 300.219 4.552 300.219 4C300.219 3.448 300.039 2.992 299.679 2.632C299.319 2.264 298.867 2.08 298.323 2.08C297.779 2.08 297.327 2.264 296.967 2.632C296.607 2.992 296.427 3.448 296.427 4C296.427 4.552 296.607 5.012 296.967 5.38ZM310.754 7H309.278L307.238 4.228V7H305.966V4.252L303.926 7H302.45L304.79 3.94L302.57 1H304.046L305.966 3.628V1H307.238V3.64L309.158 1H310.634L308.414 3.94L310.754 7Z" fill="#1A3555"/>
<path opacity="0.5" d="M255.04 364.983C254.12 364.983 253.368 364.687 252.784 364.095C252.208 363.495 251.92 362.731 251.92 361.803C251.92 360.787 252.072 360.003 252.376 359.451C252.68 358.891 253.296 358.383 254.224 357.927C254.376 357.855 254.6 357.751 254.896 357.615C255.2 357.479 255.408 357.383 255.52 357.327C255.632 357.263 255.772 357.175 255.94 357.063C256.108 356.943 256.232 356.819 256.312 356.691C256.392 356.555 256.456 356.395 256.504 356.211L257.56 356.823C257.528 356.999 257.476 357.163 257.404 357.315C257.332 357.459 257.228 357.595 257.092 357.723C256.956 357.851 256.836 357.955 256.732 358.035C256.636 358.115 256.472 358.211 256.24 358.323C256.008 358.435 255.836 358.515 255.724 358.563C255.62 358.611 255.42 358.695 255.124 358.815C254.596 359.023 254.208 359.239 253.96 359.463C253.72 359.679 253.552 359.951 253.456 360.279C253.936 359.735 254.588 359.463 255.412 359.463C256.116 359.463 256.728 359.715 257.248 360.219C257.776 360.723 258.04 361.375 258.04 362.175C258.04 362.991 257.76 363.663 257.2 364.191C256.648 364.719 255.928 364.983 255.04 364.983ZM255.028 363.771C255.532 363.771 255.944 363.623 256.264 363.327C256.584 363.023 256.744 362.639 256.744 362.175C256.744 361.703 256.584 361.315 256.264 361.011C255.952 360.707 255.544 360.555 255.04 360.555C254.592 360.555 254.188 360.699 253.828 360.987C253.468 361.267 253.288 361.643 253.288 362.115C253.288 362.595 253.456 362.991 253.792 363.303C254.128 363.615 254.54 363.771 255.028 363.771ZM263.817 358.827H265.113V364.827H263.817V363.963C263.329 364.643 262.629 364.983 261.717 364.983C260.893 364.983 260.189 364.679 259.605 364.071C259.021 363.455 258.729 362.707 258.729 361.827C258.729 360.939 259.021 360.191 259.605 359.583C260.189 358.975 260.893 358.671 261.717 358.671C262.629 358.671 263.329 359.007 263.817 359.679V358.827ZM260.565 363.207C260.925 363.567 261.377 363.747 261.921 363.747C262.465 363.747 262.917 363.567 263.277 363.207C263.637 362.839 263.817 362.379 263.817 361.827C263.817 361.275 263.637 360.819 263.277 360.459C262.917 360.091 262.465 359.907 261.921 359.907C261.377 359.907 260.925 360.091 260.565 360.459C260.205 360.819 260.025 361.275 260.025 361.827C260.025 362.379 260.205 362.839 260.565 363.207ZM270.667 358.827H271.963V364.827H270.667V362.439H267.919V364.827H266.623V358.827H267.919V361.215H270.667V358.827ZM278.771 364.827H277.223L274.763 362.055V364.827H273.467V358.827H274.763V361.479L277.091 358.827H278.675L276.035 361.767L278.771 364.827ZM281.994 364.983C281.114 364.983 280.366 364.679 279.75 364.071C279.134 363.463 278.826 362.715 278.826 361.827C278.826 360.939 279.134 360.191 279.75 359.583C280.366 358.975 281.114 358.671 281.994 358.671C282.882 358.671 283.63 358.975 284.238 359.583C284.854 360.191 285.162 360.939 285.162 361.827C285.162 362.715 284.854 363.463 284.238 364.071C283.63 364.679 282.882 364.983 281.994 364.983ZM280.662 363.183C281.022 363.543 281.466 363.723 281.994 363.723C282.522 363.723 282.966 363.543 283.326 363.183C283.686 362.823 283.866 362.371 283.866 361.827C283.866 361.283 283.686 360.831 283.326 360.471C282.966 360.111 282.522 359.931 281.994 359.931C281.466 359.931 281.022 360.111 280.662 360.471C280.302 360.831 280.122 361.283 280.122 361.827C280.122 362.371 280.302 362.823 280.662 363.183ZM290.486 361.743C291.078 362.015 291.374 362.475 291.374 363.123C291.374 363.627 291.202 364.039 290.858 364.359C290.522 364.671 290.038 364.827 289.406 364.827H286.334V358.827H289.166C289.782 358.827 290.258 358.983 290.594 359.295C290.938 359.599 291.11 359.995 291.11 360.483C291.11 361.051 290.902 361.471 290.486 361.743ZM289.07 359.931H287.57V361.263H289.07C289.598 361.263 289.862 361.039 289.862 360.591C289.862 360.151 289.598 359.931 289.07 359.931ZM289.286 363.699C289.83 363.699 290.102 363.463 290.102 362.991C290.102 362.783 290.03 362.623 289.886 362.511C289.742 362.391 289.542 362.331 289.286 362.331H287.57V363.699H289.286ZM295.26 364.983C294.356 364.983 293.6 364.679 292.992 364.071C292.392 363.463 292.092 362.715 292.092 361.827C292.092 360.931 292.392 360.183 292.992 359.583C293.6 358.975 294.356 358.671 295.26 358.671C295.844 358.671 296.376 358.811 296.856 359.091C297.336 359.371 297.696 359.747 297.936 360.219L296.82 360.867C296.684 360.579 296.476 360.355 296.196 360.195C295.924 360.027 295.608 359.943 295.248 359.943C294.72 359.943 294.276 360.123 293.916 360.483C293.564 360.843 293.388 361.291 293.388 361.827C293.388 362.363 293.564 362.811 293.916 363.171C294.276 363.531 294.72 363.711 295.248 363.711C295.6 363.711 295.916 363.627 296.196 363.459C296.484 363.291 296.7 363.067 296.844 362.787L297.96 363.423C297.704 363.903 297.336 364.283 296.856 364.563C296.376 364.843 295.844 364.983 295.26 364.983ZM304.236 364.827H302.688L300.228 362.055V364.827H298.932V358.827H300.228V361.479L302.556 358.827H304.14L301.5 361.767L304.236 364.827ZM309.452 358.827H310.448V364.827H309.176V361.011L306.104 364.827H305.108V358.827H306.38V362.631L309.452 358.827ZM312.971 362.379C313.067 362.835 313.287 363.187 313.631 363.435C313.975 363.675 314.395 363.795 314.891 363.795C315.579 363.795 316.095 363.547 316.439 363.051L317.507 363.675C316.915 364.547 316.039 364.983 314.879 364.983C313.903 364.983 313.115 364.687 312.515 364.095C311.915 363.495 311.615 362.739 311.615 361.827C311.615 360.931 311.911 360.183 312.503 359.583C313.095 358.975 313.855 358.671 314.783 358.671C315.663 358.671 316.383 358.979 316.943 359.595C317.511 360.211 317.795 360.959 317.795 361.839C317.795 361.975 317.779 362.155 317.747 362.379H312.971ZM312.959 361.323H316.487C316.399 360.835 316.195 360.467 315.875 360.219C315.563 359.971 315.195 359.847 314.771 359.847C314.291 359.847 313.891 359.979 313.571 360.243C313.251 360.507 313.047 360.867 312.959 361.323ZM324.768 364.983C323.864 364.983 323.108 364.679 322.5 364.071C321.9 363.463 321.6 362.715 321.6 361.827C321.6 360.931 321.9 360.183 322.5 359.583C323.108 358.975 323.864 358.671 324.768 358.671C325.352 358.671 325.884 358.811 326.364 359.091C326.844 359.371 327.204 359.747 327.444 360.219L326.328 360.867C326.192 360.579 325.984 360.355 325.704 360.195C325.432 360.027 325.116 359.943 324.756 359.943C324.228 359.943 323.784 360.123 323.424 360.483C323.072 360.843 322.896 361.291 322.896 361.827C322.896 362.363 323.072 362.811 323.424 363.171C323.784 363.531 324.228 363.711 324.756 363.711C325.108 363.711 325.424 363.627 325.704 363.459C325.992 363.291 326.208 363.067 326.352 362.787L327.468 363.423C327.212 363.903 326.844 364.283 326.364 364.563C325.884 364.843 325.352 364.983 324.768 364.983ZM331.97 358.827H333.266V364.827H331.97V362.799C331.49 362.975 330.986 363.063 330.458 363.063C329.714 363.063 329.126 362.879 328.694 362.511C328.262 362.143 328.046 361.603 328.046 360.891V358.827H329.342V360.771C329.342 361.491 329.77 361.851 330.626 361.851C331.13 361.851 331.578 361.759 331.97 361.575V358.827ZM335.799 362.379C335.895 362.835 336.115 363.187 336.459 363.435C336.803 363.675 337.223 363.795 337.719 363.795C338.407 363.795 338.923 363.547 339.267 363.051L340.335 363.675C339.743 364.547 338.867 364.983 337.707 364.983C336.731 364.983 335.943 364.687 335.343 364.095C334.743 363.495 334.443 362.739 334.443 361.827C334.443 360.931 334.739 360.183 335.331 359.583C335.923 358.975 336.683 358.671 337.611 358.671C338.491 358.671 339.211 358.979 339.771 359.595C340.339 360.211 340.623 360.959 340.623 361.839C340.623 361.975 340.607 362.155 340.575 362.379H335.799ZM335.787 361.323H339.315C339.227 360.835 339.023 360.467 338.703 360.219C338.391 359.971 338.023 359.847 337.599 359.847C337.119 359.847 336.719 359.979 336.399 360.243C336.079 360.507 335.875 360.867 335.787 361.323ZM346.113 358.827V360.075H344.157V364.827H342.861V360.075H340.893V358.827H346.113ZM351.508 358.827H352.804V364.827H351.508V363.963C351.02 364.643 350.32 364.983 349.408 364.983C348.584 364.983 347.88 364.679 347.296 364.071C346.712 363.455 346.42 362.707 346.42 361.827C346.42 360.939 346.712 360.191 347.296 359.583C347.88 358.975 348.584 358.671 349.408 358.671C350.32 358.671 351.02 359.007 351.508 359.679V358.827ZM348.256 363.207C348.616 363.567 349.068 363.747 349.612 363.747C350.156 363.747 350.608 363.567 350.968 363.207C351.328 362.839 351.508 362.379 351.508 361.827C351.508 361.275 351.328 360.819 350.968 360.459C350.608 360.091 350.156 359.907 349.612 359.907C349.068 359.907 348.616 360.091 348.256 360.459C347.896 360.819 347.716 361.275 347.716 361.827C347.716 362.379 347.896 362.839 348.256 363.207ZM362.595 363.603H363.399V366.435H362.127V364.827H358.011V366.435H356.739V363.603H357.471C357.839 363.083 358.023 362.359 358.023 361.431V358.827H362.595V363.603ZM358.899 363.603H361.323V360.015H359.295V361.431C359.295 362.287 359.163 363.011 358.899 363.603ZM369.515 358.827V364.827H368.219V360.075H366.215V362.307C366.215 363.259 366.007 363.935 365.591 364.335C365.175 364.735 364.583 364.899 363.815 364.827V363.615C364.183 363.679 364.459 363.603 364.643 363.387C364.827 363.171 364.919 362.791 364.919 362.247V358.827H369.515ZM375.67 358.827V364.827H374.398V362.811H373.678L372.154 364.827H370.63L372.25 362.691C371.834 362.555 371.498 362.315 371.242 361.971C370.994 361.627 370.87 361.243 370.87 360.819C370.87 360.267 371.066 359.799 371.458 359.415C371.858 359.023 372.37 358.827 372.994 358.827H375.67ZM373.066 361.695H374.398V360.003H373.066C372.802 360.003 372.582 360.079 372.406 360.231C372.23 360.383 372.142 360.591 372.142 360.855C372.142 361.111 372.23 361.315 372.406 361.467C372.582 361.619 372.802 361.695 373.066 361.695ZM255.628 378.755C256.268 379.043 256.588 379.519 256.588 380.183C256.588 380.695 256.38 381.123 255.964 381.467C255.548 381.811 254.968 381.983 254.224 381.983C253.016 381.983 252.2 381.503 251.776 380.543L252.832 379.919C253.048 380.519 253.516 380.819 254.236 380.819C254.572 380.819 254.836 380.751 255.028 380.615C255.22 380.471 255.316 380.283 255.316 380.051C255.316 379.843 255.24 379.679 255.088 379.559C254.936 379.431 254.724 379.367 254.452 379.367H253.6V378.227H254.236C254.5 378.227 254.704 378.167 254.848 378.047C255 377.919 255.076 377.747 255.076 377.531C255.076 377.323 254.992 377.155 254.824 377.027C254.656 376.891 254.432 376.823 254.152 376.823C253.552 376.823 253.136 377.087 252.904 377.615L251.848 377.015C252.296 376.119 253.056 375.671 254.128 375.671C254.8 375.671 255.332 375.843 255.724 376.187C256.124 376.523 256.324 376.935 256.324 377.423C256.324 378.023 256.092 378.467 255.628 378.755ZM262.399 375.827H263.695V381.827H262.399V380.963C261.911 381.643 261.211 381.983 260.299 381.983C259.475 381.983 258.771 381.679 258.187 381.071C257.603 380.455 257.311 379.707 257.311 378.827C257.311 377.939 257.603 377.191 258.187 376.583C258.771 375.975 259.475 375.671 260.299 375.671C261.211 375.671 261.911 376.007 262.399 376.679V375.827ZM259.147 380.207C259.507 380.567 259.959 380.747 260.503 380.747C261.047 380.747 261.499 380.567 261.859 380.207C262.219 379.839 262.399 379.379 262.399 378.827C262.399 378.275 262.219 377.819 261.859 377.459C261.499 377.091 261.047 376.907 260.503 376.907C259.959 376.907 259.507 377.091 259.147 377.459C258.787 377.819 258.607 378.275 258.607 378.827C258.607 379.379 258.787 379.839 259.147 380.207ZM268.853 375.827H270.149V381.827H268.853V379.799C268.373 379.975 267.869 380.063 267.341 380.063C266.597 380.063 266.009 379.879 265.577 379.511C265.145 379.143 264.929 378.603 264.929 377.891V375.827H266.225V377.771C266.225 378.491 266.653 378.851 267.509 378.851C268.013 378.851 268.461 378.759 268.853 378.575V375.827ZM276.006 375.827H277.002V381.827H275.73V378.011L272.658 381.827H271.662V375.827H272.934V379.631L276.006 375.827ZM281.338 381.983C280.434 381.983 279.678 381.679 279.07 381.071C278.47 380.463 278.17 379.715 278.17 378.827C278.17 377.931 278.47 377.183 279.07 376.583C279.678 375.975 280.434 375.671 281.338 375.671C281.922 375.671 282.454 375.811 282.934 376.091C283.414 376.371 283.774 376.747 284.014 377.219L282.898 377.867C282.762 377.579 282.554 377.355 282.274 377.195C282.002 377.027 281.686 376.943 281.326 376.943C280.798 376.943 280.354 377.123 279.994 377.483C279.642 377.843 279.466 378.291 279.466 378.827C279.466 379.363 279.642 379.811 279.994 380.171C280.354 380.531 280.798 380.711 281.326 380.711C281.678 380.711 281.994 380.627 282.274 380.459C282.562 380.291 282.778 380.067 282.922 379.787L284.038 380.423C283.782 380.903 283.414 381.283 282.934 381.563C282.454 381.843 281.922 381.983 281.338 381.983ZM289.957 375.827V381.827H288.661V377.075H286.657V379.307C286.657 380.259 286.449 380.935 286.033 381.335C285.617 381.735 285.025 381.899 284.257 381.827V380.615C284.625 380.679 284.901 380.603 285.085 380.387C285.269 380.171 285.361 379.791 285.361 379.247V375.827H289.957ZM292.487 379.379C292.583 379.835 292.803 380.187 293.147 380.435C293.491 380.675 293.911 380.795 294.407 380.795C295.095 380.795 295.611 380.547 295.955 380.051L297.023 380.675C296.431 381.547 295.555 381.983 294.395 381.983C293.419 381.983 292.631 381.687 292.031 381.095C291.431 380.495 291.131 379.739 291.131 378.827C291.131 377.931 291.427 377.183 292.019 376.583C292.611 375.975 293.371 375.671 294.299 375.671C295.179 375.671 295.899 375.979 296.459 376.595C297.027 377.211 297.311 377.959 297.311 378.839C297.311 378.975 297.295 379.155 297.263 379.379H292.487ZM292.475 378.323H296.003C295.915 377.835 295.711 377.467 295.391 377.219C295.079 376.971 294.711 376.847 294.287 376.847C293.807 376.847 293.407 376.979 293.087 377.243C292.767 377.507 292.563 377.867 292.475 378.323ZM302.495 375.827H303.791V381.827H302.495V379.439H299.747V381.827H298.451V375.827H299.747V378.215H302.495V375.827ZM309.639 375.827H310.635V381.827H309.363V378.011L306.291 381.827H305.295V375.827H306.567V379.631L309.639 375.827ZM316.783 375.827V381.827H315.511V379.811H314.791L313.267 381.827H311.743L313.363 379.691C312.947 379.555 312.611 379.315 312.355 378.971C312.107 378.627 311.983 378.243 311.983 377.819C311.983 377.267 312.179 376.799 312.571 376.415C312.971 376.023 313.483 375.827 314.107 375.827H316.783ZM314.179 378.695H315.511V377.003H314.179C313.915 377.003 313.695 377.079 313.519 377.231C313.343 377.383 313.255 377.591 313.255 377.855C313.255 378.111 313.343 378.315 313.519 378.467C313.695 378.619 313.915 378.695 314.179 378.695ZM324.123 381.983C323.219 381.983 322.463 381.679 321.855 381.071C321.255 380.463 320.955 379.715 320.955 378.827C320.955 377.931 321.255 377.183 321.855 376.583C322.463 375.975 323.219 375.671 324.123 375.671C324.707 375.671 325.239 375.811 325.719 376.091C326.199 376.371 326.559 376.747 326.799 377.219L325.683 377.867C325.547 377.579 325.339 377.355 325.059 377.195C324.787 377.027 324.471 376.943 324.111 376.943C323.583 376.943 323.139 377.123 322.779 377.483C322.427 377.843 322.251 378.291 322.251 378.827C322.251 379.363 322.427 379.811 322.779 380.171C323.139 380.531 323.583 380.711 324.111 380.711C324.463 380.711 324.779 380.627 325.059 380.459C325.347 380.291 325.563 380.067 325.707 379.787L326.823 380.423C326.567 380.903 326.199 381.283 325.719 381.563C325.239 381.843 324.707 381.983 324.123 381.983ZM331.191 375.671C332.015 375.671 332.719 375.979 333.303 376.595C333.887 377.203 334.179 377.947 334.179 378.827C334.179 379.715 333.887 380.463 333.303 381.071C332.719 381.679 332.015 381.983 331.191 381.983C330.279 381.983 329.579 381.647 329.091 380.975V384.227H327.795V375.827H329.091V376.691C329.579 376.011 330.279 375.671 331.191 375.671ZM329.631 380.207C329.991 380.567 330.443 380.747 330.987 380.747C331.531 380.747 331.983 380.567 332.343 380.207C332.703 379.839 332.883 379.379 332.883 378.827C332.883 378.275 332.703 377.819 332.343 377.459C331.983 377.091 331.531 376.907 330.987 376.907C330.443 376.907 329.991 377.091 329.631 377.459C329.271 377.819 329.091 378.275 329.091 378.827C329.091 379.379 329.271 379.839 329.631 380.207ZM336.374 379.379C336.47 379.835 336.69 380.187 337.034 380.435C337.378 380.675 337.798 380.795 338.294 380.795C338.982 380.795 339.498 380.547 339.842 380.051L340.91 380.675C340.318 381.547 339.442 381.983 338.282 381.983C337.306 381.983 336.518 381.687 335.918 381.095C335.318 380.495 335.018 379.739 335.018 378.827C335.018 377.931 335.314 377.183 335.906 376.583C336.498 375.975 337.258 375.671 338.186 375.671C339.066 375.671 339.786 375.979 340.346 376.595C340.914 377.211 341.198 377.959 341.198 378.839C341.198 378.975 341.182 379.155 341.15 379.379H336.374ZM336.362 378.323H339.89C339.802 377.835 339.598 377.467 339.278 377.219C338.966 376.971 338.598 376.847 338.174 376.847C337.694 376.847 337.294 376.979 336.974 377.243C336.654 377.507 336.45 377.867 336.362 378.323ZM347.384 380.603H348.188V383.435H346.916V381.827H342.8V383.435H341.528V380.603H342.26C342.628 380.083 342.812 379.359 342.812 378.431V375.827H347.384V380.603ZM343.688 380.603H346.112V377.015H344.084V378.431C344.084 379.287 343.952 380.011 343.688 380.603ZM351.838 381.983C350.934 381.983 350.178 381.679 349.57 381.071C348.97 380.463 348.67 379.715 348.67 378.827C348.67 377.931 348.97 377.183 349.57 376.583C350.178 375.975 350.934 375.671 351.838 375.671C352.422 375.671 352.954 375.811 353.434 376.091C353.914 376.371 354.274 376.747 354.514 377.219L353.398 377.867C353.262 377.579 353.054 377.355 352.774 377.195C352.502 377.027 352.186 376.943 351.826 376.943C351.298 376.943 350.854 377.123 350.494 377.483C350.142 377.843 349.966 378.291 349.966 378.827C349.966 379.363 350.142 379.811 350.494 380.171C350.854 380.531 351.298 380.711 351.826 380.711C352.178 380.711 352.494 380.627 352.774 380.459C353.062 380.291 353.278 380.067 353.422 379.787L354.538 380.423C354.282 380.903 353.914 381.283 353.434 381.563C352.954 381.843 352.422 381.983 351.838 381.983ZM360 375.827V377.075H358.044V381.827H356.748V377.075H354.78V375.827H360ZM365.029 378.743C365.621 379.015 365.917 379.475 365.917 380.123C365.917 380.627 365.745 381.039 365.401 381.359C365.065 381.671 364.581 381.827 363.949 381.827H360.877V375.827H363.709C364.325 375.827 364.801 375.983 365.137 376.295C365.481 376.599 365.653 376.995 365.653 377.483C365.653 378.051 365.445 378.471 365.029 378.743ZM363.613 376.931H362.113V378.263H363.613C364.141 378.263 364.405 378.039 364.405 377.591C364.405 377.151 364.141 376.931 363.613 376.931ZM363.829 380.699C364.373 380.699 364.645 380.463 364.645 379.991C364.645 379.783 364.573 379.623 364.429 379.511C364.285 379.391 364.085 379.331 363.829 379.331H362.113V380.699H363.829Z" fill="#1A3555"/>
<path opacity="0.5" d="M10.34 331V332.248H8.384V337H7.088V332.248H5.12V331H10.34ZM13.8146 337.156C12.9346 337.156 12.1866 336.852 11.5706 336.244C10.9546 335.636 10.6466 334.888 10.6466 334C10.6466 333.112 10.9546 332.364 11.5706 331.756C12.1866 331.148 12.9346 330.844 13.8146 330.844C14.7026 330.844 15.4506 331.148 16.0586 331.756C16.6746 332.364 16.9826 333.112 16.9826 334C16.9826 334.888 16.6746 335.636 16.0586 336.244C15.4506 336.852 14.7026 337.156 13.8146 337.156ZM12.4826 335.356C12.8426 335.716 13.2866 335.896 13.8146 335.896C14.3426 335.896 14.7866 335.716 15.1466 335.356C15.5066 334.996 15.6866 334.544 15.6866 334C15.6866 333.456 15.5066 333.004 15.1466 332.644C14.7866 332.284 14.3426 332.104 13.8146 332.104C13.2866 332.104 12.8426 332.284 12.4826 332.644C12.1226 333.004 11.9426 333.456 11.9426 334C11.9426 334.544 12.1226 334.996 12.4826 335.356ZM21.5504 330.844C22.3744 330.844 23.0784 331.152 23.6624 331.768C24.2464 332.376 24.5384 333.12 24.5384 334C24.5384 334.888 24.2464 335.636 23.6624 336.244C23.0784 336.852 22.3744 337.156 21.5504 337.156C20.6384 337.156 19.9384 336.82 19.4504 336.148V339.4H18.1544V331H19.4504V331.864C19.9384 331.184 20.6384 330.844 21.5504 330.844ZM19.9904 335.38C20.3504 335.74 20.8024 335.92 21.3464 335.92C21.8904 335.92 22.3424 335.74 22.7024 335.38C23.0624 335.012 23.2424 334.552 23.2424 334C23.2424 333.448 23.0624 332.992 22.7024 332.632C22.3424 332.264 21.8904 332.08 21.3464 332.08C20.8024 332.08 20.3504 332.264 19.9904 332.632C19.6304 332.992 19.4504 333.448 19.4504 334C19.4504 334.552 19.6304 335.012 19.9904 335.38ZM29.733 331V332.248H27.009V337H25.713V331H29.733ZM33.2091 337.156C32.3291 337.156 31.5811 336.852 30.9651 336.244C30.3491 335.636 30.0411 334.888 30.0411 334C30.0411 333.112 30.3491 332.364 30.9651 331.756C31.5811 331.148 32.3291 330.844 33.2091 330.844C34.0971 330.844 34.8451 331.148 35.4531 331.756C36.0691 332.364 36.3771 333.112 36.3771 334C36.3771 334.888 36.0691 335.636 35.4531 336.244C34.8451 336.852 34.0971 337.156 33.2091 337.156ZM31.8771 335.356C32.2371 335.716 32.6811 335.896 33.2091 335.896C33.7371 335.896 34.1811 335.716 34.5411 335.356C34.9011 334.996 35.0811 334.544 35.0811 334C35.0811 333.456 34.9011 333.004 34.5411 332.644C34.1811 332.284 33.7371 332.104 33.2091 332.104C32.6811 332.104 32.2371 332.284 31.8771 332.644C31.5171 333.004 31.3371 333.456 31.3371 334C31.3371 334.544 31.5171 334.996 31.8771 335.356ZM41.701 333.916C42.293 334.188 42.589 334.648 42.589 335.296C42.589 335.8 42.417 336.212 42.073 336.532C41.737 336.844 41.253 337 40.621 337H37.549V331H40.381C40.997 331 41.473 331.156 41.809 331.468C42.153 331.772 42.325 332.168 42.325 332.656C42.325 333.224 42.117 333.644 41.701 333.916ZM40.285 332.104H38.785V333.436H40.285C40.813 333.436 41.077 333.212 41.077 332.764C41.077 332.324 40.813 332.104 40.285 332.104ZM40.501 335.872C41.045 335.872 41.317 335.636 41.317 335.164C41.317 334.956 41.245 334.796 41.101 334.684C40.957 334.564 40.757 334.504 40.501 334.504H38.785V335.872H40.501ZM46.2587 333.04C46.8987 333.04 47.4227 333.224 47.8307 333.592C48.2387 333.952 48.4427 334.428 48.4427 335.02C48.4427 335.604 48.2387 336.08 47.8307 336.448C47.4227 336.816 46.8987 337 46.2587 337H43.6427V331H44.9387V333.04H46.2587ZM49.1627 331H50.4587V337H49.1627V331ZM46.2707 335.836C46.5267 335.836 46.7387 335.76 46.9067 335.608C47.0827 335.456 47.1707 335.26 47.1707 335.02C47.1707 334.772 47.0827 334.576 46.9067 334.432C46.7387 334.28 46.5267 334.204 46.2707 334.204H44.9387V335.836H46.2707ZM52.983 334.552C53.079 335.008 53.299 335.36 53.643 335.608C53.987 335.848 54.407 335.968 54.903 335.968C55.591 335.968 56.107 335.72 56.451 335.224L57.519 335.848C56.927 336.72 56.051 337.156 54.891 337.156C53.915 337.156 53.127 336.86 52.527 336.268C51.927 335.668 51.627 334.912 51.627 334C51.627 333.104 51.923 332.356 52.515 331.756C53.107 331.148 53.867 330.844 54.795 330.844C55.675 330.844 56.395 331.152 56.955 331.768C57.523 332.384 57.807 333.132 57.807 334.012C57.807 334.148 57.791 334.328 57.759 334.552H52.983ZM52.971 333.496H56.499C56.411 333.008 56.207 332.64 55.887 332.392C55.575 332.144 55.207 332.02 54.783 332.02C54.303 332.02 53.903 332.152 53.583 332.416C53.263 332.68 53.059 333.04 52.971 333.496ZM66.5314 331V332.248H64.5754V337H63.2794V332.248H61.3114V331H66.5314ZM70.006 337.156C69.126 337.156 68.378 336.852 67.762 336.244C67.146 335.636 66.838 334.888 66.838 334C66.838 333.112 67.146 332.364 67.762 331.756C68.378 331.148 69.126 330.844 70.006 330.844C70.894 330.844 71.642 331.148 72.25 331.756C72.866 332.364 73.174 333.112 73.174 334C73.174 334.888 72.866 335.636 72.25 336.244C71.642 336.852 70.894 337.156 70.006 337.156ZM68.674 335.356C69.034 335.716 69.478 335.896 70.006 335.896C70.534 335.896 70.978 335.716 71.338 335.356C71.698 334.996 71.878 334.544 71.878 334C71.878 333.456 71.698 333.004 71.338 332.644C70.978 332.284 70.534 332.104 70.006 332.104C69.478 332.104 69.034 332.284 68.674 332.644C68.314 333.004 68.134 333.456 68.134 334C68.134 334.544 68.314 334.996 68.674 335.356ZM77.8767 331H79.1727V337H77.8767V334.972C77.3967 335.148 76.8927 335.236 76.3647 335.236C75.6207 335.236 75.0327 335.052 74.6007 334.684C74.1687 334.316 73.9527 333.776 73.9527 333.064V331H75.2487V332.944C75.2487 333.664 75.6767 334.024 76.5327 334.024C77.0367 334.024 77.4847 333.932 77.8767 333.748V331ZM85.9897 337H84.4417L81.9817 334.228V337H80.6857V331H81.9817V333.652L84.3097 331H85.8937L83.2537 333.94L85.9897 337ZM91.2055 331H92.2015V337H90.9295V333.184L87.8575 337H86.8615V331H88.1335V334.804L91.2055 331Z" fill="#1A3555"/>
<g opacity="0.5">
<path d="M150.392 49.4419V25.6768H77.9638" stroke="#004C92"/>
<ellipse rx="2.51487" ry="2.28511" transform="matrix(-1 0 0 1 149.889 49.8989)" fill="#1A3555"/>
</g>
<g opacity="0.5">
<path d="M185.6 311.505V337.243H113.172" stroke="#004C92"/>
<ellipse cx="185.097" cy="311.01" rx="2.51487" ry="2.47475" transform="rotate(-180 185.097 311.01)" fill="#1A3555"/>
</g>
<path opacity="0.5" d="M38.176 26H36.532L33.22 22.004V26H31.84V17.6H33.22V21.368L36.412 17.6H38.056L34.66 21.692L38.176 26ZM45.4065 26H43.7625L40.4505 22.004V26H39.0705V17.6H40.4505V21.368L43.6425 17.6H45.2865L41.8905 21.692L45.4065 26ZM54.3409 17.6V26H52.9609V20.012L50.4049 24.236H50.2369L47.6809 20V26H46.3009V17.6H47.7889L50.3209 21.8L52.8649 17.6H54.3409Z" fill="#1A3555"/>
</svg>
